HIERARCHY
ROOT ui
{
	 OFFSET 0 0 0
	 CHANNELS 3 XPosition YPosition Z Position
	 EndSite
	 {
	 OFFSET 0 -1 0
	 }
}
ROOT li
{
	 OFFSET 0 0 0
	 CHANNELS 3 XPosition YPosition Z Position
	 EndSite
	 {
	 OFFSET 0 -1 0
	 }
}
ROOT ul
{
	 OFFSET 0 0 0
	 CHANNELS 3 XPosition YPosition Z Position
	 EndSite
	 {
	 OFFSET 0 -1 0
	 }
}
ROOT ll
{
	 OFFSET 0 0 0
	 CHANNELS 3 XPosition YPosition Z Position
	 EndSite
	 {
	 OFFSET 0 -1 0
	 }
}
ROOT tt
{
	 OFFSET 0 0 0
	 CHANNELS 3 XPosition YPosition Z Position
	 EndSite
	 {
	 OFFSET 0 -1 0
	 }
}
ROOT tb
{
	 OFFSET 0 0 0
	 CHANNELS 3 XPosition YPosition Z Position
	 EndSite
	 {
	 OFFSET 0 -1 0
	 }
}
ROOT td
{
	 OFFSET 0 0 0
	 CHANNELS 3 XPosition YPosition Z Position
	 EndSite
	 {
	 OFFSET 0 -1 0
	 }
}
ROOT v
{
	 OFFSET 0 0 0
	 CHANNELS 3 XPosition YPosition Z Position
	 EndSite
	 {
	 OFFSET 0 -1 0
	 }
}
ROOT bn
{
	 OFFSET 0 0 0
	 CHANNELS 3 XPosition YPosition Z Position
	 EndSite
	 {
	 OFFSET 0 -1 0
	 }
}
MOTION
Frames: 21
Frame Time: 0.002
-9.314709901809692E-4	-9.344289898872376E-4	0		0.4619112548828125	-2.472404052734375	0		-1.0635350341796874	-0.07912448120117188	0		-0.6498382568359375	-2.298225830078125	0		0.6885947265625	-0.7480238647460937	0		2.299322265625	0.29716259765625	0		4.085413330078125	0.5750391235351563	0		5.43920068359375	0.1330743865966797	0		-0.3007303161621094	5.8764287109375	0		
-0.00479483699798584	-0.004773374080657959	0		0.4338164978027344	-2.4691171875	0		-1.0574151611328124	-0.08391580963134766	0		-0.7228967895507813	-2.29247509765625	0		0.6946301879882812	-0.7540167846679687	0		2.27153125	0.29823806762695315	0		4.08169091796875	0.580729736328125	0		5.43938232421875	0.13257954406738282	0		-0.2779406127929688	5.8694296875	0		
-6.033419966697693E-4	-6.825000047683716E-4	0		0.45459423828125	-2.483203857421875	0		-1.0472706298828125	-0.08475202178955078	0		-0.711038330078125	-2.298364013671875	0		0.694707275390625	-0.7539739990234375	0		2.26668115234375	0.2921417236328125	0		4.08187255859375	0.5743921508789063	0		5.4495439453125	0.1300135498046875	0		-0.28100564575195314	5.88461181640625	0		
0.0066080279350280765	0.006374370098114013	0		0.4585140686035156	-2.479173095703125	0		-1.039068359375	-0.07758961486816406	0		-0.696152587890625	-2.30129150390625	0		0.7038601684570313	-0.7440078125	0		2.320938232421875	0.30059197998046877	0		4.087138427734375	0.5800228271484374	0		5.469845703125	0.146380615234375	0		-0.24518150329589844	5.88848388671875	0		
-2.91144996881485E-4	-4.7044500708580015E-4	0		0.49046701049804686	-2.47236865234375	0		-1.0119148559570312	-0.07659193420410157	0		-0.6362289428710938	-2.300586181640625	0		0.6978837280273438	-0.7509321899414062	0		2.27200830078125	0.28583642578125	0		4.0863994140625	0.5857109375	0		5.46409326171875	0.15596528625488282	0		-0.24541322326660156	5.88961767578125	0		
-1.3989700376987457E-4	-3.792000114917755E-4	0		0.47031613159179686	-2.4801669921875	0		-1.0568248291015625	-0.08304747772216797	0		-0.6742994995117187	-2.300133544921875	0		0.7189300537109375	-0.7550741577148438	0		2.2762265625	0.29067568969726565	0		4.086607421875	0.585406005859375	0		5.4712041015625	0.1484718017578125	0		-0.25976937866210936	5.8798515625	0		
-0.004023769855499268	-0.004266292095184326	0		0.4951983642578125	-2.485328125	0		-1.062644287109375	-0.07782302093505859	0		-0.6763761596679687	-2.301975341796875	0		0.6950181884765625	-0.7538670654296875	0		2.281352783203125	0.2845103149414063	0		4.074808837890625	0.5852117919921875	0		5.47050146484375	0.1650636749267578	0		-0.2600799255371094	5.8809638671875	0		
1.5261200070381165E-4	-2.2805799543857574E-4	0		0.4521259460449219	-2.485952880859375	0		-1.04655517578125	-0.08379161071777344	0		-0.7113930053710937	-2.29756591796875	0		0.722122314453125	-0.7510734252929687	0		2.2955693359375	0.2902744140625	0		4.091058837890625	0.5918079223632813	0		5.4957236328125	0.17246908569335936	0		-0.2915009765625	5.873314453125	0		
2.9429700970649717E-4	-1.6814999282360076E-4	0		0.4810705871582031	-2.486164794921875	0		-1.0423875732421874	-0.07968183135986329	0		-0.7094081420898437	-2.294466064453125	0		0.69820556640625	-0.7508750610351562	0		2.29067724609375	0.2831941833496094	0		4.079239501953125	0.5906428833007813	0		5.49994384765625	0.18006265258789061	0		-0.2767987365722656	5.88528271484375	0		
4.336859881877899E-4	-1.1806999891996383E-4	0		0.45202816772460935	-2.485911865234375	0		-1.0522454833984376	-0.07847296142578125	0		-0.674479736328125	-2.2996513671875	0		0.7222889404296875	-0.7510734252929687	0		2.312877685546875	0.2878949279785156	0		4.09143017578125	0.5912943725585937	0		5.5111044921875	0.180617919921875	0		-0.29131640625	5.87447705078125	0		
5.713850259780884E-4	-7.717700302600861E-5	0		0.49500216674804687	-2.485258056640625	0		-1.0501878662109374	-0.08737613677978516	0		-0.7234317626953125	-2.291158447265625	0		0.6983759765625	-0.7508832397460937	0		2.298994140625	0.28289337158203126	0		4.0796005859375	0.5901541748046875	0		5.51533740234375	0.19024740600585938	0		-0.29077581787109374	5.87453759765625	0		
-0.003325293064117432	-0.004011207103729248	0		0.4479397277832031	-2.48986474609375	0		-1.0500567626953126	-0.08727650451660156	0		-0.6425697631835937	-2.30675537109375	0		0.719430419921875	-0.7550706176757812	0		2.295190673828125	0.28781207275390625	0		4.087724609375	0.5838591918945313	0		5.5254853515625	0.18984371948242187	0		-0.2902635803222656	5.8745888671875	0		
8.44074010848999E-4	-1.9744999706745147E-5	0		0.4749014892578125	-2.49309326171875	0		-1.0499259033203125	-0.08718897247314453	0		-0.7035771484375	-2.30717919921875	0		0.674565185546875	-0.749710205078125	0		2.26725244140625	0.276936279296875	0		4.0848955078125	0.5836661376953125	0		5.54069140625	0.19641354370117187	0		-0.2736943359375	5.88449609375	0		
0.008039484977722168	0.006939590930938721	0		0.4539856262207031	-2.48292333984375	0		-1.0457606201171874	-0.08314612579345704	0		-0.6625526733398438	-2.305468505859375	0		0.7136842651367188	-0.7470587158203125	0		2.3124873046875	0.28644879150390623	0		4.085174072265625	0.596458984375	0		5.54999072265625	0.2140496826171875	0		-0.23720889282226562	5.8872255859375	0		
0.001117596983909607	1.282699964940548E-5	0		0.4769354248046875	-2.490128173828125	0		-1.055618896484375	-0.08199378204345703	0		-0.71348046875	-2.29898681640625	0		0.6987496337890625	-0.7509535522460937	0		2.271597900390625	0.28169366455078126	0		4.09634130859375	0.5961703491210938	0		5.560146484375	0.21469467163085937	0		-0.2538469390869141	5.878396484375	0		
0.001254883050918579	2.201399952173233E-5	0		0.472912109375	-2.495107177734375	0		-1.0165553588867187	-0.09026811981201172	0		-0.6445316772460937	-2.3085341796875	0		0.7198163452148437	-0.7551570434570313	0		2.3087470703125	0.281278564453125	0		4.09245556640625	0.5900200805664062	0		5.57044775390625	0.23235430908203125	0		-0.2874728088378906	5.873708984375	0		
0.001391152024269104	2.6708999648690223E-5	0		0.47293838500976565	-2.495123291015625	0		-1.0534217529296874	-0.08990018463134766	0		-0.7184599609375	-2.303864501953125	0		0.6959288330078125	-0.7539775390625	0		2.276750732421875	0.26445751953125	0		4.080609619140625	0.5889476928710937	0		5.57059423828125	0.23211351013183593	0		-0.3021717224121094	5.86285595703125	0		
-0.002509596109390259	-0.003938337087631225	0		0.4828998107910156	-2.503228515625	0		-1.053291748046875	-0.08985653686523437	0		-0.6715093994140625	-2.314240478515625	0		0.6960314331054688	-0.7540059204101562	0		2.304998046875	0.27612152099609377	0		4.089767333984375	0.5887021484375	0		5.58480615234375	0.23976309204101562	0		-0.2716075439453125	5.8846083984375	0		
0.001654278039932251	2.2939000278711318E-5	0		0.45899462890625	-2.49604296875	0		-1.0491397705078125	-0.08685479736328125	0		-0.703406982421875	-2.30694091796875	0		0.6991578369140625	-0.7510628051757813	0		2.286121337890625	0.27419400024414065	0		4.0900322265625	0.6015404052734376	0		5.6049443359375	0.23937062072753906	0		-0.2513132629394531	5.87744140625	0		
0.0017778069972991942	1.5364999882876874E-5	0		0.501009521484375	-2.49843310546875	0		-1.0160468139648438	-0.0901123046875	0		-0.644377197265625	-2.308437744140625	0		0.69925439453125	-0.7510953979492188	0		2.3133583984375	0.2858684997558594	0		4.086125244140625	0.595421142578125	0		5.6042421875	0.25816989135742185	0		-0.2509787292480469	5.87744287109375	0		
0.0018935990333557129	5.080000031739474E-6	0		0.48097225952148437	-2.50628466796875	0		-1.058888671875	-0.08471223449707031	0		-0.7203184204101563	-2.30576123046875	0		0.7203092041015625	-0.755312744140625	0		2.318325927734375	0.2677376403808594	0		4.086260986328125	0.59527392578125	0		5.61944482421875	0.2668401184082031	0		-0.2667440490722656	5.86858154296875	0		
